<svg width="402" height="129" viewBox="0 0 402 129" fill="none" xmlns="http://www.w3.org/2000/svg">
<g clip-path="url(#clip0_33_800)">
<path d="M129.799 56.9141C131.262 56.7615 132.761 57.1162 133.938 58.0319C134.971 58.8321 135.946 60.1521 136.256 62.3093C137.003 67.4858 135.186 68.8676 137.981 70.8764C140.776 72.8892 142.41 71.7384 144.092 76.585C145.774 81.4274 142.863 87.7878 137.154 86.3441C131.445 84.9005 117.613 80.6108 117.613 80.6108L117.466 59.2487L124.479 57.4792L129.795 56.9183L129.799 56.9141Z" fill="black"/>
<path d="M115.526 75.9168C115.526 75.9168 109.28 76.8449 105.24 84.4674C101.197 92.094 97.8014 113.118 98.4216 113.782C99.0419 114.446 112.528 116.438 123.708 116.438C134.888 116.438 138.391 115.997 139.468 115.333C140.546 114.669 140.267 78.7752 134.077 75.9168C127.886 73.0625 122.169 73.6317 115.526 75.9168Z" fill="#6876AA"/>
<path d="M113.975 76.255C113.975 76.255 104.167 92.2094 102.227 102.534C100.29 112.858 99.9126 120.167 99.9126 120.167L135.56 120.398L136.196 92.3084L132.435 75.6692L122.038 74.205L113.975 76.2508V76.255Z" fill="#F7B369"/>
<path d="M113.975 76.255C113.975 76.255 108.973 95.4639 107.916 102.175C106.858 108.886 106.64 115.3 106.64 115.3L100.099 114.285L102.596 98.5327L111.522 78.3792L113.975 76.2509V76.255Z" fill="#6876AA"/>
<path d="M111.574 60.779C111.574 60.779 108.918 56.0562 109.18 54.0598C109.828 49.1349 116.587 45.8805 123.203 48.3759C129.819 50.8714 130.98 59.5003 129.851 63.2167C126.944 72.7861 118.913 69.2347 118.913 69.2347C118.913 69.2347 106.365 66.4835 111.574 60.7831V60.779Z" fill="black"/>
<path d="M113.562 71.1197L113.57 71.3012L113.864 74.6793L114.086 77.3274C114.086 77.3274 113.896 77.9544 116.866 77.612C120.841 77.1377 122.05 75.2981 122.05 75.2981L121.943 69.0697L120.742 69.3667L113.558 71.1238L113.562 71.1197Z" fill="#F48462"/>
<path d="M113.573 71.3012L113.868 74.6793C115.796 74.3411 119.287 73.3017 120.571 70.072C120.67 69.808 120.73 69.5729 120.746 69.379L113.581 71.2517L113.573 71.3053V71.3012Z" fill="black"/>
<path d="M111.59 55.1611C111.59 55.1611 108.27 64.1489 109.828 69.0367C111.387 73.9245 115.697 72.9346 118.257 71.8539C120.818 70.7732 121.951 69.0615 121.951 69.0615C121.951 69.0615 124.42 69.7998 125.938 67.3786C127.461 64.9574 126.34 62.3134 124.925 61.7607C123.509 61.2121 121.907 62.3299 121.907 62.3299L123.088 59.7066C123.088 59.7066 117.068 46.9529 111.594 55.1611H111.59Z" fill="#F48462"/>
<path d="M113.975 76.255C113.975 76.255 105.141 76.618 97.7418 83.6218C90.3427 90.6256 79.616 107.764 83.9417 113.86C90.2911 122.811 103.952 120.076 103.952 120.076L104.584 105.508L108.266 84.3642L113.975 76.255Z" fill="#6876AA"/>
<path d="M112.464 66.3267C112.357 66.3267 112.261 66.2607 112.222 66.1493C111.566 64.3015 112.747 62.3216 112.794 62.2391C112.87 62.1153 113.029 62.0741 113.152 62.1525C113.271 62.2308 113.311 62.3958 113.236 62.5237C113.224 62.5402 112.142 64.3675 112.711 65.9637C112.758 66.104 112.691 66.2566 112.556 66.3102C112.528 66.3226 112.496 66.3267 112.464 66.3267Z" fill="black"/>
<path d="M122.459 66.4299C122.4 66.4299 122.34 66.4093 122.292 66.368C122.185 66.2732 122.169 66.1041 122.265 65.9886L124.443 63.3281C124.535 63.2168 124.698 63.2003 124.809 63.2993C124.917 63.3941 124.932 63.5632 124.837 63.6787L122.658 66.3392C122.607 66.4011 122.535 66.434 122.459 66.434V66.4299Z" fill="black"/>
<path d="M124.865 65.6173C124.865 65.6173 124.849 65.6173 124.841 65.6173L123.235 65.4523C123.092 65.4358 122.988 65.308 123.004 65.1595C123.02 65.011 123.147 64.9038 123.286 64.9203L124.893 65.0852C125.036 65.1017 125.139 65.2296 125.123 65.3781C125.111 65.5183 124.996 65.6215 124.865 65.6215V65.6173Z" fill="black"/>
<path d="M115.212 68.8924C114.389 68.8924 113.701 68.2489 113.661 68.2118C113.593 68.1499 113.566 68.055 113.581 67.9643C113.597 67.8736 113.657 67.7993 113.74 67.7622L117.001 66.434C117.092 66.3969 117.192 66.4175 117.263 66.4794C117.335 66.5454 117.366 66.6485 117.347 66.7434C117.335 66.797 117.04 68.0509 115.983 68.6738C115.72 68.8264 115.458 68.8882 115.208 68.8882L115.212 68.8924ZM114.377 68.0839C114.719 68.2901 115.247 68.4964 115.732 68.2118C116.194 67.9395 116.48 67.5065 116.647 67.16L114.377 68.0839Z" fill="black"/>
<path d="M117.458 59.6035C117.37 59.6035 117.283 59.554 117.235 59.4715C116.806 58.7084 115.78 58.9806 115.736 58.993C115.597 59.0301 115.458 58.9476 115.418 58.8033C115.382 58.6589 115.462 58.5145 115.601 58.4733C115.661 58.4568 117.052 58.0773 117.685 59.1992C117.756 59.3271 117.716 59.4921 117.593 59.5663C117.553 59.5911 117.506 59.6035 117.462 59.6035H117.458Z" fill="black"/>
<path d="M110.866 58.9475C110.798 58.9475 110.731 58.9228 110.683 58.8692C110.584 58.7619 110.584 58.5928 110.683 58.4897C110.711 58.4608 111.359 57.805 112.098 57.8545C112.46 57.8792 112.77 58.069 113.021 58.4072C113.108 58.5268 113.084 58.6918 112.973 58.7825C112.858 58.8733 112.699 58.8485 112.611 58.733C112.452 58.5186 112.273 58.4031 112.063 58.3866C111.554 58.3453 111.049 58.8609 111.045 58.8692C110.993 58.9187 110.93 58.9475 110.862 58.9475H110.866Z" fill="black"/>
<path d="M111.427 62.6969C111.427 62.6969 111.411 62.6969 111.403 62.6969C111.26 62.6845 111.156 62.5525 111.168 62.4041L111.307 60.8697L110.743 60.218C110.647 60.1066 110.655 59.9375 110.763 59.8385C110.87 59.7395 111.033 59.7477 111.128 59.8591L111.768 60.5974C111.816 60.6511 111.84 60.7253 111.832 60.8037L111.685 62.4536C111.673 62.5938 111.562 62.6969 111.427 62.6969Z" fill="black"/>
<path d="M116.142 62.8331C115.979 62.8207 115.872 62.6929 115.883 62.5444L115.991 61.0265L115.16 60.2634C115.053 60.1644 115.045 59.9953 115.136 59.8839C115.231 59.7725 115.394 59.7643 115.502 59.8592L116.428 60.713C116.488 60.7666 116.52 60.8491 116.516 60.9357L116.396 62.5897C116.384 62.73 116.273 62.8372 116.138 62.8372L116.142 62.8331Z" fill="black"/>
<path d="M126.376 53.9031C126.376 53.9031 125.469 43.3355 132.423 44.4863C139.79 45.7031 132.836 57.8999 128.129 57.2317C126.034 56.9347 126.38 53.9031 126.38 53.9031H126.376Z" fill="black"/>
<path d="M114.858 93.8594C114.858 93.8594 112.496 81.0314 111.279 79.6414C110.063 78.2514 102.052 74.5845 101.034 75.595C100.012 76.6056 101.05 77.8719 101.05 77.8719C101.05 77.8719 99.5269 76.9686 98.9544 77.9131C98.3819 78.8577 99.4911 80.3261 99.4911 80.3261C99.4911 80.3261 98.2785 79.5342 98.4375 81.2913C98.6005 83.0484 101.924 86.2657 101.924 86.2657C101.924 86.2657 102.115 89.8584 104.246 93.7233C106.377 97.584 112.858 97.7572 112.858 97.7572L114.858 93.8594Z" fill="#F48462"/>
<path d="M107.419 81.3737C107.379 81.3737 107.339 81.3655 107.3 81.3448L100.95 77.9089C100.823 77.8388 100.775 77.678 100.839 77.546C100.907 77.414 101.062 77.3645 101.189 77.4305L107.538 80.8664C107.665 80.9365 107.713 81.0974 107.65 81.2294C107.602 81.3201 107.514 81.3737 107.419 81.3737Z" fill="black"/>
<path d="M105.701 84.6323C105.654 84.6323 105.606 84.62 105.566 84.5911L99.356 80.5571C99.2367 80.4787 99.197 80.3137 99.2725 80.1859C99.348 80.058 99.5071 80.0209 99.6303 80.0993L105.841 84.1333C105.96 84.2116 106 84.3766 105.924 84.5045C105.876 84.587 105.789 84.6323 105.705 84.6323H105.701Z" fill="black"/>
<path d="M115.494 78.0863C114.595 78.0863 113.995 77.9873 113.931 77.9749C113.792 77.9502 113.697 77.8141 113.721 77.6656C113.744 77.5212 113.876 77.4222 114.019 77.447C114.063 77.4552 118.317 78.1523 121.525 75.6362C121.64 75.5455 121.8 75.5702 121.887 75.6898C121.974 75.8095 121.951 75.9744 121.835 76.0652C119.661 77.7687 117.1 78.0863 115.494 78.0863Z" fill="#465884"/>
<path d="M104.242 98.5369C104.242 98.5369 114.826 121.681 131.131 120.398C147.436 119.115 146.207 89.3181 141.086 81.7657C135.965 74.2133 128.698 74.3082 128.698 74.3082L122.042 93.7233L116.595 88.9097L104.246 98.5369H104.242Z" fill="#6876AA"/>
<path d="M122.038 74.2091C122.038 74.2091 112.89 115.865 114.647 116.079C116.404 116.298 130.312 116.995 130.312 116.995L128.698 74.3122L122.042 74.2091H122.038Z" fill="#6876AA"/>
<path d="M129.799 57.1822C129.664 57.1822 129.552 57.075 129.54 56.9347C129.21 52.3191 126.272 50.6032 126.244 50.5867C126.117 50.5166 126.074 50.3516 126.141 50.2238C126.209 50.0918 126.368 50.0464 126.491 50.1165C126.622 50.1908 129.703 51.9892 130.053 56.8935C130.065 57.042 129.958 57.1698 129.815 57.1822C129.807 57.1822 129.803 57.1822 129.795 57.1822H129.799Z" fill="#F7B369"/>
<path d="M132.335 103.821C132.272 103.821 132.208 103.796 132.161 103.75L118.977 91.0009C118.873 90.8978 118.865 90.7286 118.965 90.6214C119.064 90.5142 119.227 90.5059 119.331 90.609L132.514 103.359C132.618 103.462 132.626 103.631 132.526 103.738C132.475 103.796 132.407 103.825 132.335 103.825V103.821Z" fill="#465884"/>
<path d="M133.043 99.6464C130.511 99.6464 126.988 98.5822 126.789 98.5203C126.678 98.4873 126.602 98.3759 126.602 98.2563C126.602 98.1326 126.686 98.0295 126.801 98.0006C127.533 97.8191 133.993 96.2558 135.361 97.5097C135.584 97.716 135.683 97.9841 135.647 98.2934C135.604 98.6729 135.417 98.9823 135.091 99.205C134.629 99.5226 133.89 99.6422 133.043 99.6422V99.6464ZM127.942 98.2893C130.069 98.8461 133.659 99.5515 134.808 98.7637C135.003 98.6275 135.115 98.4543 135.138 98.2357C135.154 98.1037 135.119 98.0047 135.023 97.914C134.244 97.1963 130.674 97.6871 127.942 98.2893Z" fill="#465884"/>
<path d="M116.011 51.5354C116.011 51.5354 114.921 52.9172 114.726 55.1817L114.532 57.4503L123.529 60.4201L123.819 55.8746L116.015 51.5354H116.011Z" fill="black"/>
<path d="M115.223 53.0203C115.223 53.0203 114.412 53.7215 114.027 54.6744C113.645 55.6313 113.224 57.5369 113.224 57.5369L110.608 57.1657L111.017 52.4223L114.607 50.265L116.738 50.5661L116.337 53.6184L115.219 53.0203H115.223Z" fill="black"/>
<path d="M189.671 74.4236C189.671 74.4236 199.805 78.3297 209.343 78.9319C217.601 79.4557 228.789 75.4382 228.789 75.4382L235.417 90.3409C235.417 90.3409 213.88 108.3 200.533 100.756C183.325 91.0297 189.671 74.4194 189.671 74.4194V74.4236Z" fill="#68B6D8"/>
<path d="M212.122 85.4325C211.844 85.4325 211.594 85.3211 211.391 85.1066C210.282 83.927 210.779 79.6744 210.838 79.1918C210.854 79.0763 210.938 78.9855 211.049 78.9608C211.16 78.9402 211.272 78.9938 211.323 79.0969C211.562 79.5547 213.633 83.5929 212.945 84.9458C212.802 85.2263 212.56 85.3913 212.238 85.4242C212.198 85.4242 212.162 85.4284 212.122 85.4284V85.4325ZM211.268 80.157C211.152 81.6831 211.12 84.0507 211.765 84.7354C211.884 84.8633 212.019 84.9128 212.186 84.8963C212.333 84.8798 212.429 84.8179 212.488 84.6983C212.846 83.993 212.039 81.7986 211.268 80.157Z" fill="#F7B369"/>
<path d="M229.767 76.7953C229.767 76.7953 231.676 72.5922 234.387 71.1032C237.099 69.6142 240.072 68.9336 239.218 70.6206C238.363 72.3076 236.156 74.8732 236.156 74.8732L240.534 74.6835C240.534 74.6835 243.508 74.007 245.583 73.9163C247.658 73.8255 247.953 75.4631 247.953 75.4631C247.953 75.4631 250.028 75.3723 250.752 76.1684C251.475 76.9603 250.596 78.0988 250.596 78.0988C250.596 78.0988 253.395 78.8041 251.857 80.7922C250.322 82.7803 243.953 85.2552 240.979 85.9316C238.005 86.6081 231.747 86.0554 231.747 86.0554C231.747 86.0554 226.026 86.0348 229.759 76.7995L229.767 76.7953Z" fill="#F48462"/>
<path d="M244.728 81.2789C244.669 81.2789 244.609 81.2583 244.561 81.2129L238.244 75.5703C238.136 75.4754 238.124 75.3022 238.216 75.1908C238.307 75.0794 238.474 75.0671 238.582 75.1619L244.899 80.8046C245.006 80.8994 245.018 81.0727 244.927 81.1841C244.875 81.2459 244.804 81.2789 244.732 81.2789H244.728Z" fill="black"/>
<path d="M230.256 80.4663C230.117 80.4663 230.002 80.3508 229.998 80.2064C229.994 80.0579 230.105 79.9342 230.248 79.9301C232.546 79.8476 234.141 79.2288 234.983 78.0987C235.874 76.9066 235.596 75.5537 235.596 75.5372C235.564 75.3928 235.651 75.2485 235.794 75.2155C235.934 75.1866 236.073 75.2732 236.105 75.4217C236.12 75.4877 236.435 77.0386 235.397 78.4287C234.455 79.6908 232.729 80.3796 230.268 80.4704H230.26L230.256 80.4663Z" fill="black"/>
<path d="M229.401 74.4251L237.282 89.0542C237.486 89.4323 237.356 89.9094 236.991 90.1206L233.67 92.0464C233.305 92.2577 232.846 92.1227 232.642 91.7446L224.761 77.1155C224.557 76.7375 224.688 76.2604 225.052 76.0491L228.373 74.1233C228.738 73.912 229.198 74.047 229.401 74.4251Z" fill="#F7B369"/>
<path d="M260.83 73.7554C260.83 73.7554 261.84 74.0194 262.083 74.4113C262.325 74.8031 262.258 76.3581 262.258 76.3581C262.258 76.3581 272.587 77.3935 283.015 89.6274C293.567 102.006 294.931 109.41 291.44 114.805C286.832 121.932 270.973 120.01 270.973 120.01C270.973 120.01 267.152 120.592 253.543 120.377C240.971 120.179 233.958 120.01 233.958 120.01C233.958 120.01 212.301 125.426 214.027 110.548C216.313 90.8195 239.134 78.1607 243.543 76.3623C247.527 74.7371 251.165 74.6959 251.165 74.6959C251.165 74.6959 251.364 73.9369 251.582 73.8049C252.743 73.1037 260.826 73.7596 260.826 73.7596L260.83 73.7554Z" fill="#A37B90"/>
<path d="M376.157 50.7435C376.157 50.7435 386.176 62.3382 384.077 75.5621C382.181 87.5032 365.208 82.3143 365.208 82.3143L357.093 80.3179C357.093 80.3179 354.286 73.2935 358.401 66.5289C362.512 59.7643 376.161 50.7435 376.161 50.7435H376.157Z" fill="black"/>
<path d="M380.399 119.622C380.399 119.622 379.827 78.6267 377.708 76.2179C375.589 73.8049 362.647 71.2558 355.193 77.0263C350.529 80.6396 349.121 97.2169 350.529 107.636C351.746 116.669 352.239 120.146 352.239 120.146L380.399 119.622Z" fill="#465884"/>
<path d="M41.2492 74.5226C41.2492 74.5226 33.0272 73.9781 28.3198 78.3462C23.6125 82.7143 21.2111 119.631 21.2111 119.631C21.2111 119.631 34.4426 119.858 43.0543 120.113C49.3162 120.299 60.532 119.631 60.532 119.631C60.532 119.631 56.9856 81.8275 54.938 77.2078C52.8905 72.5881 41.2492 74.5226 41.2492 74.5226Z" fill="#F7B369"/>
<path d="M183.624 48.8791C183.624 48.8791 173.756 45.9918 169.509 56.0892C165.263 66.1865 168.639 93.9914 168.639 93.9914L190.569 89.6027L187.866 67.2053L183.624 48.8791Z" fill="black"/>
<path d="M178.96 72.6705C178.96 72.6705 165.923 76.226 163.828 83.0484C161.733 89.8707 170.825 118.533 173.668 119.721C176.511 120.909 200.676 119.635 200.676 119.635C200.676 119.635 202.318 99.6546 201.964 97.2168C201.61 94.7791 200.191 85.0324 197.575 80.7303C194.959 76.4282 187.977 73.1078 185.067 72.8809C182.157 72.654 178.96 72.6747 178.96 72.6747V72.6705Z" fill="#68B6D8"/>
<path d="M402 114.982H0V124.325H402V114.982Z" fill="#EBE8EE"/>
<path d="M176.904 67.1682L177.06 74.3948C177.06 74.3948 178.36 76.4447 182.443 76.6922C185.484 76.8778 186.538 76.1436 186.538 76.1436L186.037 72.4932L185.544 68.9336L178.149 67.424L176.908 67.1682H176.904Z" fill="#F48462"/>
<path d="M178.145 67.424C178.165 67.6219 178.244 67.8529 178.364 68.1169C179.998 71.693 184.28 72.3736 186.037 72.4974L185.544 68.9377L178.149 67.4281L178.145 67.424Z" fill="black"/>
<path d="M186.745 52.4223C186.745 52.4223 190.593 61.4018 189.261 66.4711C187.925 71.5404 183.481 70.7732 180.813 69.8122C178.149 68.8511 176.905 67.1682 176.905 67.1682C176.905 67.1682 174.428 68.0592 172.75 65.6751C171.072 63.291 172.078 60.5315 173.493 59.8922C174.909 59.2528 176.598 60.3047 176.598 60.3047L175.259 57.6978C175.259 57.6978 180.733 44.3584 186.741 52.4223H186.745Z" fill="#F48462"/>
<path d="M176.598 60.3046C176.598 60.3046 180.328 61.0966 182.936 56.7945C185.54 52.4924 185.309 50.7229 185.309 50.7229L187.882 55.1776C187.882 55.1776 188.466 52.0964 187.285 50.1248C186.101 48.1532 184.868 48.5574 184.868 48.5574L176.63 50.6651L174.443 57.5039L176.602 60.3005L176.598 60.3046Z" fill="black"/>
<path d="M170.81 76.255C170.81 76.255 151.491 86.1049 153.658 105.268C155.825 124.42 179 121.718 187.671 119.635C196.342 117.552 189.579 103.887 189.579 103.887C189.579 103.887 186.303 105.075 177.894 103.586C169.486 102.096 170.814 76.2591 170.814 76.2591L170.81 76.255Z" fill="#68B6D8"/>
<path d="M171.382 102.822C171.382 102.822 171.362 102.822 171.35 102.822C169.478 102.595 163.343 101.75 163.116 100.372C163.029 99.836 163.649 99.5226 163.852 99.4195C167.172 97.7366 171.386 102.179 171.565 102.369C171.64 102.451 171.66 102.571 171.613 102.674C171.569 102.765 171.477 102.822 171.382 102.822ZM165.474 99.5803C164.997 99.5803 164.528 99.6752 164.082 99.902C163.693 100.1 163.625 100.244 163.629 100.282C163.733 100.904 167.199 101.717 170.619 102.187C169.621 101.28 167.478 99.5803 165.47 99.5803H165.474Z" fill="#F7B369"/>
<path d="M187.667 55.4663C187.647 55.4663 187.627 55.4663 187.607 55.458L186.804 55.2559C186.665 55.2229 186.582 55.0744 186.613 54.9301C186.645 54.7857 186.788 54.6991 186.928 54.7321L187.731 54.9342C187.87 54.9672 187.953 55.1157 187.921 55.2601C187.894 55.3838 187.786 55.4663 187.671 55.4663H187.667Z" fill="black"/>
<path d="M182.856 56.2789C182.757 56.2789 182.657 56.217 182.618 56.1139C182.562 55.9778 182.626 55.8211 182.757 55.7633L184.622 54.9508C184.753 54.893 184.904 54.959 184.959 55.0951C185.015 55.2312 184.952 55.388 184.82 55.4457L182.956 56.2583C182.924 56.2707 182.888 56.2789 182.856 56.2789Z" fill="black"/>
<path d="M186.725 63.2786C186.661 63.2786 186.598 63.2538 186.546 63.2043C186.443 63.1012 186.439 62.9321 186.538 62.8248C187.747 61.5214 186.236 59.1414 186.22 59.1167C186.14 58.993 186.172 58.828 186.291 58.7455C186.411 58.663 186.57 58.696 186.649 58.8197C186.721 58.9311 188.403 61.5792 186.908 63.1961C186.856 63.2497 186.788 63.2786 186.721 63.2786H186.725Z" fill="black"/>
<path d="M176.626 64.4418C176.567 64.4418 176.507 64.4211 176.455 64.3758L173.509 61.7359C173.402 61.6411 173.39 61.4678 173.481 61.3565C173.577 61.2451 173.74 61.2327 173.847 61.3276L176.793 63.9674C176.901 64.0623 176.912 64.2355 176.821 64.3469C176.769 64.4088 176.698 64.4418 176.626 64.4418Z" fill="black"/>
<path d="M173.481 64.5613C173.382 64.5613 173.29 64.5036 173.247 64.4046C173.187 64.2685 173.247 64.1117 173.374 64.0499L175.513 63.0269C175.64 62.9651 175.795 63.0269 175.855 63.1589C175.915 63.2909 175.855 63.4518 175.728 63.5136L173.593 64.5366C173.557 64.5531 173.521 64.5613 173.485 64.5613H173.481Z" fill="black"/>
<path d="M176.833 73.4172C176.833 73.4172 176.01 73.5038 175.911 74.04C175.811 74.5762 179.012 83.729 181.508 84.5499C184.005 85.3707 185.953 77.2862 186.073 77.4223C186.192 77.5584 190.665 81.0067 191.146 80.8953C191.627 80.784 189.556 76.816 188.251 75.2568C186.947 73.6977 186.124 73.1161 186.124 73.1161C186.124 73.1161 186.279 75.0052 186.268 75.4094C186.256 75.8137 184.709 76.7087 181.966 76.2468C178.042 75.5909 176.841 73.4131 176.841 73.4131L176.833 73.4172Z" fill="#F7B369"/>
<path d="M183.302 60.1767C183.17 60.1767 183.059 60.0736 183.043 59.9334L182.872 58.0937C182.864 58.003 182.9 57.9123 182.968 57.8586L183.981 57.0254C184.093 56.9347 184.256 56.9512 184.343 57.0708C184.431 57.1863 184.415 57.3554 184.3 57.4462L183.397 58.1886L183.552 59.8797C183.568 60.0282 183.461 60.1602 183.321 60.1726C183.314 60.1726 183.306 60.1726 183.298 60.1726L183.302 60.1767Z" fill="black"/>
<path d="M187.941 59.6282C187.81 59.6282 187.699 59.5251 187.683 59.3849L187.512 57.5452C187.504 57.4586 187.536 57.372 187.603 57.3142L188.375 56.6419C188.482 56.5471 188.649 56.5594 188.741 56.6749C188.832 56.7863 188.82 56.9595 188.709 57.0544L188.041 57.636L188.2 59.3354C188.216 59.4839 188.108 59.6158 187.969 59.6282C187.961 59.6282 187.953 59.6282 187.945 59.6282H187.941Z" fill="black"/>
<path d="M201.419 99.9887C201.419 99.9887 201.4 99.9887 201.392 99.9887C201.248 99.9722 201.145 99.8402 201.161 99.6917C202.437 87.6145 197.269 83.8527 197.217 83.8156C197.098 83.7331 197.066 83.564 197.145 83.4443C197.225 83.3206 197.384 83.2876 197.503 83.3701C197.726 83.5268 202.986 87.3216 201.674 99.7494C201.658 99.8855 201.547 99.9887 201.415 99.9887H201.419Z" fill="#F7B369"/>
<path d="M183.484 103.817C183.484 103.817 183.469 103.817 183.465 103.817L171.362 102.822C171.219 102.81 171.112 102.682 171.124 102.534C171.136 102.385 171.255 102.27 171.402 102.286L183.504 103.28C183.648 103.293 183.755 103.421 183.743 103.569C183.731 103.709 183.62 103.817 183.484 103.817Z" fill="#F7B369"/>
<path d="M184.327 66.8259C184.176 66.8259 184.013 66.8011 183.842 66.7475C182.59 66.3391 182.598 64.7965 182.598 64.7305C182.598 64.648 182.638 64.5696 182.705 64.516C182.769 64.4665 182.856 64.4541 182.932 64.4748L185.818 65.3822C185.898 65.4069 185.957 65.4688 185.985 65.5472C186.013 65.6256 186.005 65.7122 185.961 65.7864C185.93 65.8359 185.309 66.8259 184.327 66.8259ZM183.155 65.1058C183.222 65.4853 183.425 66.0463 184.001 66.236C184.578 66.4216 185.043 66.0628 185.305 65.7823L183.155 65.1058Z" fill="black"/>
<path d="M329.111 102.901C329.111 102.901 336.061 97.7861 340.204 94.1646C344.343 90.543 353.419 77.2655 357.089 75.8012C360.763 74.337 352.843 110.074 352.843 110.074C352.843 110.074 341.635 119.004 333.353 114.087C325.072 109.17 329.111 102.905 329.111 102.905V102.901Z" fill="#465884"/>
<path d="M54.3297 76.288C54.3297 76.288 58.9059 78.7133 64.9054 90.3409C70.392 100.975 72.8809 112.668 67.5692 116.158C54.0156 125.059 36.844 111.93 36.844 111.93L54.3337 76.288H54.3297Z" fill="#F7B369"/>
<path d="M43.428 56.151C43.428 56.151 50.0875 57.1863 51.1172 50.5661C52.2106 43.5211 45.9566 42.1764 42.9906 44.7585C40.0246 47.3406 40.2393 50.3104 40.2393 50.3104C40.2393 50.3104 38.5377 48.3635 36.2874 50.298C34.6334 51.7169 35.1582 54.3774 35.1582 54.3774C35.1582 54.3774 31.7191 53.8783 31.735 57.0378C31.7509 60.1974 33.7508 62.0123 33.7508 62.0123L43.424 56.1469L43.428 56.151Z" fill="black"/>
<path d="M36.1125 67.7662L36.0886 75.2155C36.0886 75.2155 37.3768 77.3604 41.5753 77.7316C44.7042 78.008 45.8055 77.2779 45.8055 77.2779L45.3801 73.5037L44.9627 69.8245L37.3808 68.0673L36.1085 67.7704L36.1125 67.7662Z" fill="#F48462"/>
<path d="M37.3847 68.0632C37.4006 68.2653 37.4762 68.5087 37.5914 68.7809C39.1858 72.5097 43.5751 73.3264 45.3841 73.4996L44.9666 69.8204L37.3847 68.0632Z" fill="black"/>
<path d="M46.6206 52.843C46.6206 52.843 50.3579 62.1979 48.855 67.3827C47.3521 72.5675 42.7879 71.6559 40.0684 70.5958C37.349 69.5358 36.1085 67.7663 36.1085 67.7663C36.1085 67.7663 33.5322 68.616 31.8663 66.1164C30.2004 63.6168 31.3057 60.7996 32.7768 60.1809C34.2478 59.5581 35.9654 60.6882 35.9654 60.6882L34.6533 57.9659C34.6533 57.9659 40.629 44.3749 46.6166 52.8471L46.6206 52.843Z" fill="#F48462"/>
<path d="M35.695 64.6809C35.6433 64.6809 35.5876 64.6644 35.5439 64.6314L32.3155 62.2061C32.2002 62.1195 32.1724 61.9504 32.2559 61.8307C32.3394 61.7111 32.5024 61.6822 32.6177 61.7689L35.8461 64.1942C35.9614 64.2808 35.9892 64.4499 35.9057 64.5696C35.854 64.6438 35.7745 64.6809 35.695 64.6809Z" fill="black"/>
<path d="M32.7449 64.6315C32.6296 64.6315 32.5223 64.549 32.4944 64.4293C32.4586 64.285 32.5421 64.1406 32.6813 64.1035L34.8123 63.5425C34.9515 63.5054 35.0906 63.592 35.1264 63.7364C35.1622 63.8808 35.0787 64.0251 34.9396 64.0622L32.8085 64.6232C32.7886 64.6273 32.7648 64.6315 32.7449 64.6315Z" fill="black"/>
<path d="M40.5932 56.7243C40.5376 56.7243 40.4819 56.7078 40.4342 56.6665C40.3229 56.5758 40.303 56.4067 40.3905 56.2912C41.5991 54.6784 43.1656 55.5405 43.1815 55.5487C43.3087 55.6189 43.3525 55.7839 43.2849 55.9117C43.2173 56.0437 43.0582 56.0891 42.935 56.019C42.8793 55.9901 41.7303 55.3755 40.8 56.6212C40.7483 56.6872 40.6727 56.7243 40.5972 56.7243H40.5932Z" fill="black"/>
<path d="M48.028 57.141C47.9684 57.141 47.9127 57.1204 47.861 57.0791C47.0857 56.4068 46.2548 56.8976 46.2468 56.9059C46.1236 56.9801 45.9645 56.9389 45.893 56.811C45.8214 56.6831 45.8612 56.5182 45.9844 56.4439C46.0321 56.415 47.1374 55.7592 48.191 56.6708C48.3023 56.7656 48.3143 56.9348 48.2228 57.0502C48.1711 57.1121 48.0996 57.1451 48.024 57.1451L48.028 57.141Z" fill="black"/>
<path d="M45.7856 64.6975C45.7618 64.6975 45.734 64.6975 45.7101 64.6851C45.5749 64.6439 45.4954 64.4913 45.5391 64.351C46.3264 61.6369 44.9507 59.6488 44.9348 59.6282C44.8513 59.5086 44.8752 59.3395 44.9905 59.2528C45.1058 59.1662 45.2688 59.191 45.3523 59.3106C45.4159 59.4013 46.9029 61.5256 46.0361 64.5078C46.0043 64.6232 45.9009 64.6975 45.7896 64.6975H45.7856Z" fill="black"/>
<path d="M47.5151 59.9788C47.3998 59.9788 47.2964 59.9005 47.2646 59.7808L46.8193 58.0691C46.7836 57.9247 46.8631 57.7803 47.0022 57.7391C47.1414 57.702 47.2805 57.7845 47.3203 57.9288L47.7656 59.6406C47.8014 59.785 47.7219 59.9293 47.5827 59.9706C47.5588 59.9788 47.539 59.9788 47.5151 59.9788Z" fill="black"/>
<path d="M42.9707 60.3665C42.8554 60.3665 42.7521 60.2881 42.7203 60.1685L42.275 58.4568C42.2392 58.3124 42.3187 58.168 42.4579 58.1268C42.597 58.0897 42.7362 58.1722 42.7759 58.3165L43.2212 60.0283C43.257 60.1727 43.1775 60.317 43.0383 60.3583C43.0145 60.3665 42.9946 60.3665 42.9707 60.3665Z" fill="black"/>
<path d="M47.368 54.9507C47.368 54.9507 46.5928 53.4493 44.7997 53.4328C43.0066 53.4122 41.9569 54.7197 41.9569 54.7197C41.9569 54.7197 42.7322 57.8504 40.2911 59.5044C37.8499 61.1584 35.9654 60.6882 35.9654 60.6882L34.2001 60.0283L32.9119 57.3431L38.0407 51.6468L44.6685 48.0459L48.028 51.2343L47.3601 54.9507H47.368Z" fill="black"/>
<path d="M36.176 74.8609C36.176 74.8609 24.0378 72.6665 16.5514 84.7107C10.194 94.9359 9.92365 104.563 9.92365 104.563L29.1189 102.893L36.176 74.8609Z" fill="#F7B369"/>
<path d="M9.92369 104.563C9.92369 104.563 9.40683 119.858 21.3582 118.814C34.9317 117.626 41.8973 90.077 41.8973 90.077L46.064 87.6764C46.064 87.6764 45.0978 91.0339 48.4177 89.4005C51.7415 87.7712 51.2962 84.2941 51.2962 84.2941L47.9366 77.1377C47.9366 77.1377 53.8129 71.9446 52.1867 71.561C49.678 70.9712 41.452 76.1436 41.452 76.1436C41.452 76.1436 42.0842 72.7572 40.2155 73.2068C38.1998 73.6935 37.1303 79.9466 37.1303 79.9466L14.5794 103.676L9.92369 104.563Z" fill="#F48462"/>
<path d="M46.0679 87.9403C45.9884 87.9403 45.9129 87.9032 45.8612 87.8331C45.7896 87.7341 45.7896 87.6021 45.8612 87.5072L47.4634 85.3706C47.5509 85.2551 47.7139 85.2304 47.8252 85.3252C47.9366 85.416 47.9564 85.5851 47.869 85.7006L46.8671 87.037L48.2347 86.4513C48.3659 86.3935 48.517 86.4595 48.5727 86.5956C48.6283 86.7318 48.5647 86.8885 48.4335 86.9462L46.1594 87.9238C46.1275 87.9362 46.0918 87.9444 46.06 87.9444L46.0679 87.9403Z" fill="black"/>
<path d="M46.4496 78.3545C46.3622 78.3545 46.2787 78.3091 46.227 78.2266C46.1514 78.0987 46.1912 77.9338 46.3144 77.8554L47.8054 76.9067C47.9286 76.8283 48.0877 76.8696 48.1592 76.9974C48.2348 77.1253 48.195 77.2903 48.0718 77.3687L46.5808 78.3174C46.5371 78.3421 46.4934 78.3586 46.4457 78.3586L46.4496 78.3545Z" fill="black"/>
<path d="M35.9375 80.025L43.9488 91.8341C43.9488 91.8341 38.5774 111.62 27.7791 117.713C16.9808 123.805 8.60766 115.291 9.92366 104.559C11.2397 93.8264 35.9375 80.0209 35.9375 80.0209V80.025Z" fill="#F7B369"/>
<path d="M44.2708 67.0032C44.2271 67.0032 44.1794 66.9908 44.1396 66.9661L42.4936 65.939C42.3704 65.8606 42.3306 65.6956 42.4062 65.5719C42.4777 65.444 42.6368 65.4028 42.76 65.4812L44.406 66.5082C44.5293 66.5866 44.569 66.7516 44.4935 66.8753C44.4458 66.9578 44.3583 67.0073 44.2708 67.0073V67.0032Z" fill="black"/>
<path d="M41.456 76.4076C41.3924 76.4076 41.3248 76.3829 41.2771 76.3334C41.1936 76.2509 41.1737 76.123 41.2294 76.0158C41.2373 75.9993 42.1319 74.172 41.0385 72.8232C40.8676 72.6129 40.7284 72.6087 40.6409 72.6211C39.9372 72.7407 38.9631 74.6752 38.5139 75.8631C38.4622 75.9993 38.3111 76.0694 38.1799 76.0158C38.0487 75.9621 37.9811 75.8054 38.0328 75.6693C38.164 75.3228 39.3369 72.2994 40.5574 72.0931C40.7841 72.056 41.122 72.0931 41.4361 72.4809C42.2909 73.5368 42.1597 74.7825 41.949 75.5497L44.4736 74.0771C44.5969 74.0029 44.7559 74.0524 44.8275 74.1803C44.899 74.3081 44.8513 74.4731 44.7281 74.5474L41.5832 76.3787C41.5434 76.4035 41.4997 76.4117 41.456 76.4117V76.4076Z" fill="black"/>
<path d="M27.7831 89.7883C27.7831 89.7883 23.032 89.4129 20.7737 90.2296C18.5154 91.0504 14.0863 96.7137 14.7066 97.6335C15.3228 98.5533 16.8456 97.7655 16.8456 97.7655C16.8456 97.7655 15.9192 99.8774 17.7918 99.9351C19.6684 99.997 27.7791 89.7841 27.7791 89.7841L27.7831 89.7883Z" fill="#F48462"/>
<path d="M64.2454 100.76C64.1977 100.76 64.146 100.744 64.1023 100.715C58.23 96.7343 43.8971 95.336 43.75 95.3236C43.6069 95.3112 43.5035 95.1792 43.5155 95.0307C43.5274 94.8823 43.6586 94.7709 43.7977 94.7874C44.3901 94.8451 58.4049 96.2104 64.3846 100.265C64.5039 100.348 64.5396 100.513 64.4601 100.636C64.4124 100.715 64.3289 100.756 64.2415 100.756L64.2454 100.76Z" fill="white"/>
<path d="M43.9488 92.1022C43.8653 92.1022 43.7818 92.061 43.7341 91.9826L35.9415 79.9012L29.9817 86.8349C29.8863 86.9463 29.7233 86.9545 29.6159 86.8555C29.5086 86.7565 29.5006 86.5874 29.5961 86.4761L35.7745 79.2866C35.8262 79.2248 35.9057 79.1918 35.9852 79.1959C36.0647 79.2 36.1363 79.2454 36.184 79.3155L44.1635 91.6856C44.243 91.8093 44.2112 91.9743 44.0919 92.0568C44.0482 92.0857 43.9965 92.1022 43.9488 92.1022Z" fill="white"/>
<path d="M58.067 97.287C56.3176 97.287 54.0594 96.9529 53.1131 96.7962C52.9978 96.7797 52.9103 96.6848 52.8984 96.5652C52.8825 96.4456 52.9461 96.3301 53.0535 96.2847C53.2761 96.1898 58.4725 93.9377 60.1384 95.8887C60.4644 96.2723 60.4247 96.5569 60.3332 96.7302C60.1145 97.1468 59.1961 97.287 58.067 97.287ZM54.1786 96.4167C57.1565 96.8333 59.6693 96.8704 59.88 96.4744C59.8839 96.4662 59.88 96.392 59.7527 96.2435C58.7747 95.1009 55.932 95.7939 54.1826 96.4167H54.1786Z" fill="white"/>
<path d="M37.9254 77.0057C37.9254 77.0057 37.8936 77.0057 37.8737 77.0016C36.51 76.7253 35.9971 75.5043 35.9176 74.898C35.8978 74.7495 35.9971 74.6175 36.1403 74.5969C36.2794 74.5804 36.4106 74.6794 36.4305 74.8279C36.4385 74.8897 36.6412 76.2055 37.9731 76.4778C38.1123 76.5066 38.2037 76.6469 38.1759 76.7912C38.152 76.9191 38.0447 77.0099 37.9214 77.0099L37.9254 77.0057Z" fill="white"/>
<path d="M16.7065 98.1574C16.6389 98.1574 16.5753 98.1326 16.5236 98.079C16.4202 97.9759 16.4202 97.8068 16.5236 97.6995L20.9169 93.0798C21.0163 92.9726 21.1793 92.9726 21.2826 93.0798C21.386 93.1829 21.386 93.3521 21.2826 93.4593L16.8893 98.079C16.8377 98.1326 16.7701 98.1574 16.7065 98.1574Z" fill="black"/>
<path d="M260.818 60.2386C260.818 60.2386 265.534 58.1515 265.899 61.938C266.325 66.3268 261.272 66.368 261.272 66.368L260.818 60.2386Z" fill="#F48462"/>
<path d="M263.168 64.1695C263.124 64.1695 263.081 64.1571 263.037 64.1324C262.914 64.0582 262.874 63.8932 262.945 63.7653L264.52 60.9687C264.591 60.8409 264.75 60.7955 264.874 60.8739C264.997 60.9481 265.037 61.1131 264.965 61.241L263.391 64.0375C263.343 64.1241 263.256 64.1695 263.168 64.1695Z" fill="black"/>
<path d="M277.628 88.823C277.628 88.823 276.571 95.5464 281.819 95.336C287.067 95.1256 287.345 87.3588 287.345 87.3588L277.628 88.8272V88.823Z" fill="#F48462"/>
<path d="M283.755 81.0026C283.755 81.0026 289.397 70.4722 290.49 71.0042C291.583 71.5363 276.952 94.4121 276.3 94.0863C275.644 93.7604 283.755 81.0026 283.755 81.0026Z" fill="#465884"/>
<path d="M264.997 63.3281L263.649 63.3033C263.506 63.3033 263.391 63.1796 263.395 63.0311C263.395 62.8826 263.506 62.7671 263.657 62.7671L265.001 62.7918C265.144 62.7918 265.259 62.9156 265.255 63.0641C265.255 63.2126 265.136 63.3281 264.997 63.3281Z" fill="black"/>
<path d="M252.322 70.6701L252.282 75.8054C252.282 75.8054 254.195 76.8737 256.584 76.9149C259.808 76.9727 260.898 74.9887 260.898 74.9887L260.874 68.9666L252.326 70.6701H252.322Z" fill="#F48462"/>
<path d="M252.322 70.6619C252.322 70.6619 253.869 74.8196 257.53 74.2504C260.48 73.7926 261.327 69.4492 261.327 69.4492L252.326 70.6578L252.322 70.6619Z" fill="black"/>
<path d="M262.317 56.0356C262.317 56.0356 264.385 65.4358 261.788 69.5977C259.005 74.0607 254.525 72.7284 252.847 71.392C250.585 69.5853 250.119 67.0816 250.119 67.0816C250.119 67.0816 247.01 67.7251 245.973 65.0935C244.883 62.3299 246.819 60.0984 248.378 59.9665C249.932 59.8345 250.115 60.1273 250.115 60.1273L249.658 57.174C249.658 57.174 259.117 46.2682 262.317 56.0315V56.0356Z" fill="#F48462"/>
<path d="M249.606 64.3717C249.547 64.3717 249.487 64.351 249.439 64.3057L247.038 62.169C246.931 62.0742 246.919 61.9051 247.01 61.7896C247.106 61.6782 247.269 61.6658 247.376 61.7607L249.777 63.8973C249.885 63.9922 249.897 64.1613 249.805 64.2768C249.754 64.3387 249.682 64.3717 249.61 64.3717H249.606Z" fill="black"/>
<path d="M247.388 64.7634C247.308 64.7634 247.233 64.7263 247.181 64.6562C247.094 64.5366 247.118 64.3674 247.233 64.2808L248.648 63.1754C248.764 63.0847 248.927 63.1094 249.01 63.229C249.098 63.3486 249.074 63.5178 248.958 63.6044L247.543 64.7098C247.495 64.7469 247.444 64.7634 247.388 64.7634Z" fill="black"/>
<path d="M254.282 61.773C254.147 61.773 254.032 61.6617 254.024 61.5214L253.936 59.9417C253.928 59.7932 254.036 59.6653 254.179 59.657C254.318 59.6488 254.445 59.7602 254.453 59.9087L254.541 61.4884C254.548 61.6369 254.441 61.7648 254.298 61.773C254.294 61.773 254.286 61.773 254.282 61.773Z" fill="black"/>
<path d="M260.119 61.443C259.983 61.443 259.868 61.3316 259.86 61.1914L259.773 59.6116C259.765 59.4631 259.872 59.3353 260.015 59.327C260.15 59.3229 260.282 59.4301 260.29 59.5786L260.377 61.1584C260.385 61.3069 260.278 61.4348 260.134 61.443C260.131 61.443 260.123 61.443 260.119 61.443Z" fill="black"/>
<path d="M257.427 65.6379C257.427 65.6379 257.395 65.6379 257.375 65.6338C257.236 65.6049 257.145 65.4647 257.173 65.3203C257.618 62.9857 256.882 61.0512 256.874 61.0306C256.823 60.8945 256.886 60.7378 257.017 60.68C257.149 60.6264 257.3 60.6924 257.355 60.8285C257.387 60.9151 258.155 62.9321 257.681 65.4193C257.658 65.5472 257.55 65.6338 257.427 65.6338V65.6379Z" fill="black"/>
<path d="M260.886 58.0237C260.838 58.0237 260.787 58.0072 260.743 57.9783C260.282 57.6566 259.518 57.6772 259.264 57.7143C259.125 57.735 258.993 57.6318 258.974 57.4833C258.954 57.3349 259.053 57.2029 259.196 57.1822C259.24 57.174 260.321 57.0296 261.037 57.5328C261.156 57.6153 261.184 57.7844 261.105 57.9041C261.053 57.9824 260.973 58.0237 260.89 58.0237H260.886Z" fill="black"/>
<path d="M253.463 58.9559C253.407 58.9559 253.352 58.9394 253.304 58.8982C253.193 58.8074 253.169 58.6383 253.256 58.5228C253.785 57.8134 254.855 57.603 254.898 57.5947C255.041 57.57 255.173 57.6649 255.2 57.8092C255.228 57.9536 255.133 58.0938 254.994 58.1227C254.986 58.1227 254.075 58.3042 253.666 58.8487C253.614 58.9188 253.539 58.9518 253.463 58.9518V58.9559Z" fill="black"/>
<path d="M249.396 60.1479C249.396 60.1479 250.374 63.0475 250.736 62.9279C251.097 62.8083 250.489 58.2381 249.436 58.0525C248.382 57.8669 249.396 60.1479 249.396 60.1479Z" fill="black"/>
<path d="M249.841 59.719C249.841 59.719 252.958 59.2859 254.978 57.4957C256.683 55.9819 257.272 53.9155 257.272 53.9155C257.272 53.9155 258.608 53.668 260.588 54.794C262.564 55.9201 262.898 59.6942 262.898 59.6942C262.898 59.6942 266.138 53.1029 264.341 50.9209C262.544 48.7389 259.868 50.7642 259.868 50.7642C259.868 50.7642 260.158 46.5487 254.644 48.4543C249.129 50.3641 248.088 55.4375 248.088 55.4375C248.088 55.4375 246.171 55.3632 246.02 57.207C245.869 59.0549 246.68 60.8821 246.68 60.8821C246.68 60.8821 247.471 60.0201 248.772 60.449L250.072 60.8739L249.837 59.719H249.841Z" fill="black"/>
<path d="M260.83 73.7554C260.83 73.7554 259.856 74.9103 257.387 75.2155C254.918 75.5208 252.561 73.6564 252.561 73.6564L251.241 76.8448L255.407 78.9608L261.963 77.744L261.689 74.6711L260.834 73.7554H260.83Z" fill="#A37B90"/>
<path d="M241.528 102.002C241.496 102.002 241.46 101.993 241.428 101.981C241.325 101.94 231.095 97.6912 222.666 101.535C222.535 101.597 222.384 101.535 222.324 101.399C222.269 101.263 222.324 101.106 222.456 101.045C231.087 97.1055 241.52 101.441 241.623 101.486C241.754 101.544 241.818 101.7 241.766 101.837C241.726 101.94 241.627 102.006 241.528 102.006V102.002Z" fill="#92B4EA"/>
<path d="M233.54 99.9103C233.516 99.9103 233.492 99.9103 233.469 99.8979C232.073 99.4689 227.513 97.9799 227.358 96.7136C227.334 96.5198 227.386 96.2352 227.763 96C229.703 94.7956 233.329 98.9822 233.735 99.4648C233.81 99.5556 233.818 99.6876 233.759 99.7865C233.711 99.8649 233.628 99.9103 233.54 99.9103ZM228.57 96.3176C228.372 96.3176 228.189 96.363 228.03 96.462C227.966 96.4991 227.863 96.5775 227.871 96.6476C227.938 97.2045 230.272 98.2728 232.681 99.0853C231.56 97.9098 229.763 96.3176 228.57 96.3176Z" fill="#92B4EA"/>
<path d="M285.965 85.1067C285.965 85.1067 290.593 84.9417 289.353 82.636C288.112 80.3303 279.898 78.5938 278.813 81.0851C277.728 83.5806 285.965 85.1026 285.965 85.1026V85.1067Z" fill="#F48462"/>
<path d="M285.166 88.9922C285.166 88.9922 289.794 88.8272 288.554 86.5215C287.313 84.2158 279.099 82.4793 278.014 84.9706C276.928 87.4661 285.166 88.9881 285.166 88.9881V88.9922Z" fill="#F48462"/>
<path d="M282.109 91.764C283.131 91.962 284.196 91.9208 285.174 91.5454C286.049 91.2113 286.773 90.6338 286.18 89.6398C284.995 87.6517 277.664 86.4555 276.801 88.7076C276.157 90.3864 280.073 91.3722 282.109 91.764Z" fill="#F48462"/>
<path d="M287.13 84.5828C287.13 84.5828 287.103 84.5828 287.091 84.5828L280.777 83.5598C280.638 83.5351 280.538 83.399 280.562 83.2546C280.586 83.1102 280.717 83.0071 280.856 83.0319L287.17 84.0548C287.309 84.0796 287.409 84.2157 287.385 84.36C287.365 84.492 287.254 84.5869 287.13 84.5869V84.5828Z" fill="black"/>
<path d="M285.787 88.5879C285.787 88.5879 285.759 88.5879 285.747 88.5879L279.433 87.565C279.294 87.5402 279.195 87.4041 279.219 87.2597C279.242 87.1112 279.37 87.0122 279.513 87.037L285.826 88.0599C285.965 88.0847 286.065 88.2208 286.041 88.3652C286.021 88.4972 285.91 88.592 285.787 88.592V88.5879Z" fill="black"/>
<path d="M258.019 78.9567C257.618 78.9567 257.192 78.9154 256.735 78.8165C256.596 78.7876 256.505 78.6432 256.532 78.4988C256.56 78.3545 256.699 78.2596 256.839 78.2885C260.377 79.0433 262.019 76.2467 262.035 76.2179C262.107 76.09 262.266 76.0488 262.389 76.123C262.512 76.1972 262.552 76.3622 262.48 76.4901C262.464 76.519 261.033 78.9526 258.019 78.9526V78.9567Z" fill="#92B4EA"/>
<path d="M256.385 68.3767C255.849 68.3767 255.01 68.154 254.413 66.9496C254.35 66.8176 254.397 66.6567 254.525 66.5866C254.652 66.5165 254.807 66.5701 254.874 66.7021C255.602 68.1705 256.691 67.8075 256.739 67.791C256.874 67.7456 257.021 67.8158 257.069 67.956C257.117 68.0962 257.045 68.2489 256.91 68.2984C256.906 68.2984 256.695 68.3726 256.389 68.3726L256.385 68.3767Z" fill="black"/>
<path d="M359.824 59.3105C359.824 59.3105 357.944 54.7651 358.306 52.7728C358.663 50.7764 366.285 44.9111 372.67 48.0954C379.055 51.2797 379.385 60.0447 377.895 63.6497C374.058 72.9304 366.361 68.5417 366.361 68.5417C366.361 68.5417 354.059 64.4829 359.828 59.3105H359.824Z" fill="black"/>
<path d="M360.814 69.874L360.806 70.0555L360.775 73.4666L360.739 76.1436C360.739 76.1436 360.488 76.754 363.494 76.7169C367.526 76.6551 368.909 74.9392 368.909 74.9392L369.406 68.6902L368.178 68.8634L360.814 69.874Z" fill="#F48462"/>
<path d="M360.806 70.0555L360.775 73.4667C362.739 73.3306 366.333 72.65 367.935 69.5482C368.058 69.2966 368.146 69.0656 368.178 68.8759L360.822 70.006L360.806 70.0555Z" fill="black"/>
<path d="M360.377 53.6844C360.377 53.6844 356.183 62.3422 357.272 67.3992C358.357 72.4561 362.774 71.9157 365.442 71.099C368.11 70.2823 369.41 68.6861 369.41 68.6861C369.41 68.6861 371.812 69.6843 373.569 67.4157C375.326 65.1471 374.459 62.3835 373.096 61.6864C371.732 60.9893 370.018 61.9421 370.018 61.9421L371.454 59.4384C371.454 59.4384 366.659 46.0413 360.381 53.6927L360.377 53.6844Z" fill="#F48462"/>
<path d="M370.014 61.938C370.014 61.938 366.373 59.7725 365.152 56.9182C363.927 54.0639 363.943 52.6656 363.943 52.6656C363.943 52.6656 363.315 54.4681 361.936 54.8311C360.556 55.194 359.709 55.2023 359.709 55.2023L358.723 57.7596L359.57 51.589C359.57 51.589 363.351 49.7246 363.844 49.7494C364.337 49.7741 370.511 51.2343 370.853 51.6426C371.195 52.051 372.929 57.1615 372.929 57.1615L372.961 59.4343L370.018 61.938H370.014Z" fill="black"/>
<path d="M359.979 110.136C359.979 110.136 358.433 109.814 356.489 108.919C354.549 108.028 346.664 107.76 343.961 107.648C341.257 107.533 334.387 110.47 335.115 111.435C335.846 112.404 342.144 111.67 342.144 111.67C342.144 111.67 336.725 115.873 337.417 116.9C338.104 117.931 340.104 117.036 340.104 117.036C340.104 117.036 338.403 118.278 339.846 118.995C341.289 119.713 347.448 116.125 347.448 116.125C347.448 116.125 344.37 120.295 345.356 120.889C346.342 121.487 350.732 117.894 350.732 117.894C350.732 117.894 355.304 122.283 358.588 119.849C361.872 117.416 362.854 115.296 362.854 115.296L359.979 110.131V110.136Z" fill="#F48462"/>
<path d="M377.708 76.2179C377.708 76.2179 395.599 86.8267 392.856 110.857C390.955 127.505 355.678 122.646 355.678 122.646L355.193 107.636C355.193 107.636 373.756 102.41 375.195 101.593C377.978 100.018 377.704 76.2137 377.704 76.2137L377.708 76.2179Z" fill="#465884"/>
<path d="M252.322 91.6938V89.4706C252.322 89.4706 255.336 88.5879 259.228 88.9096C263.12 89.2314 265.927 91.1741 265.927 91.1741C265.927 91.1741 269.47 89.1984 273.628 88.8354C277.787 88.4765 280.216 88.8354 280.216 88.8354L279.763 91.6897L264.997 94.6265L252.318 91.6897L252.322 91.6938Z" fill="white"/>
<path d="M280.538 90.7451L276.376 120.373H247.821L251.984 90.7451H280.538Z" fill="#68B6D8"/>
<path d="M267.104 90.7451L263.578 120.373H260.806L264.333 90.7451H267.104Z" fill="#53AAC9"/>
<path d="M242.442 104.976C242.442 104.976 246.477 96.0125 247.126 95.3773C247.774 94.7421 255.292 92.0857 256.318 92.1394C257.339 92.193 255.733 94.5564 254.93 95.2247C254.127 95.8929 253.085 96.6147 253.085 96.6147C253.085 96.6147 258.715 96.6147 259.24 97.6005C259.765 98.5863 258.254 99.4979 258.254 99.4979C258.254 99.4979 260.27 99.6752 259.546 101.02C258.822 102.36 253.296 103.862 253.296 103.862C253.296 103.862 252.242 109.562 248.521 110.911C244.804 112.26 243.062 111.88 243.062 111.88L242.442 104.976Z" fill="#F48462"/>
<path d="M248.776 97.2952C248.644 97.2952 248.529 97.1921 248.517 97.0519C248.505 96.9034 248.609 96.7755 248.752 96.759L253.057 96.3424C253.201 96.33 253.324 96.4373 253.34 96.5858C253.352 96.7343 253.248 96.8621 253.105 96.8786L248.799 97.2952C248.799 97.2952 248.783 97.2952 248.776 97.2952Z" fill="black"/>
<path d="M251.197 100.273C251.062 100.273 250.946 100.162 250.938 100.018C250.93 99.8691 251.042 99.7454 251.185 99.7371L255.324 99.5103C255.463 99.5103 255.59 99.6175 255.594 99.766C255.602 99.9145 255.491 100.042 255.348 100.046L251.209 100.273C251.209 100.273 251.201 100.273 251.193 100.273H251.197Z" fill="black"/>
<path d="M145.579 96.2187C145.579 96.2187 148.756 84.6323 149.936 84.8921C151.117 85.152 141.905 110.886 141.198 110.725C140.49 110.564 145.579 96.2228 145.579 96.2228V96.2187Z" fill="#465884"/>
<path d="M143.301 110.346C142.629 110.622 139.134 95.7773 139.134 95.7773C139.134 95.7773 137.393 90.2213 136.713 86.6946C136.415 85.152 136.319 83.9929 136.657 83.8527C136.88 83.7619 137.305 84.7478 137.842 86.3894C139.981 92.9849 143.837 110.123 143.301 110.342V110.346Z" fill="#A37B90"/>
<path d="M145.611 111.992H139.047C138.621 111.992 138.259 111.666 138.192 111.22L136.51 99.8815C136.427 99.3288 136.832 98.8256 137.365 98.8256H147.296C147.829 98.8256 148.231 99.3247 148.151 99.8815L146.47 111.22C146.402 111.666 146.04 111.992 145.615 111.992H145.611Z" fill="#B1A5B7"/>
<path d="M137.842 86.3936L136.713 86.6988C136.415 85.1561 136.319 83.9971 136.657 83.8568C136.88 83.7661 137.305 84.7519 137.842 86.3936Z" fill="white"/>
<path d="M158.314 122.048H121.374V116.95H158.314C159.637 116.95 160.711 118.063 160.711 119.437V119.561C160.711 120.934 159.637 122.048 158.314 122.048Z" fill="#B1A5B7"/>
<path d="M145.122 122.048H121.446C121 122.048 120.643 121.672 120.643 121.215V117.787C120.643 117.325 121.004 116.954 121.446 116.954H145.122C146.37 116.954 147.384 118.006 147.384 119.301V119.709C147.384 121.004 146.37 122.056 145.122 122.056V122.048Z" fill="#C8BCCE"/>
<path d="M144.756 121.062H120.643V117.824H144.756C145.607 117.824 146.295 118.538 146.295 119.42V119.466C146.295 120.348 145.607 121.062 144.756 121.062Z" fill="white"/>
<path d="M151.356 116.95H128.829C127.509 116.95 126.439 115.84 126.439 114.471C126.439 113.101 127.509 111.992 128.829 111.992H151.356C151.769 111.992 152.103 112.338 152.103 112.767V116.174C152.103 116.603 151.769 116.95 151.356 116.95Z" fill="#ECE8EF"/>
<path d="M156.846 116.95H134.319C132.999 116.95 131.93 115.84 131.93 114.471C131.93 113.101 132.999 111.992 134.319 111.992H156.846C157.26 111.992 157.594 112.338 157.594 112.767V116.174C157.594 116.603 157.26 116.95 156.846 116.95Z" fill="#C8BCCE"/>
<path d="M157.594 115.993H134.49C133.651 115.993 132.972 115.287 132.972 114.417C132.972 113.547 133.651 112.841 134.49 112.841H157.594V115.989V115.993Z" fill="white"/>
<path d="M195.969 119.635H221.223C222.778 119.635 224.038 118.327 224.038 116.715C224.038 115.102 222.778 113.794 221.223 113.794H195.969C195.79 113.794 195.647 113.943 195.647 114.128V119.301C195.647 119.486 195.79 119.635 195.969 119.635Z" fill="#B1A5B7"/>
<path d="M195.165 119.635H214.707C216.261 119.635 217.522 118.327 217.522 116.715C217.522 115.102 216.261 113.794 214.707 113.794H195.165C194.724 113.794 194.362 114.165 194.362 114.627V118.806C194.362 119.264 194.72 119.639 195.165 119.639V119.635Z" fill="#C8BCCE"/>
<path d="M194.366 118.505H214.794C215.78 118.505 216.583 117.676 216.583 116.648C216.583 115.621 215.784 114.792 214.794 114.792H194.366V118.5V118.505Z" fill="white"/>
<path d="M341.456 99.9144C341.313 99.9144 341.166 99.8773 341.031 99.803C339.786 99.1307 339.162 95.3648 339.094 94.9359C339.079 94.8286 339.126 94.7172 339.218 94.6636C339.309 94.6059 339.424 94.6141 339.508 94.6801C339.838 94.94 342.744 97.2746 342.589 98.842C342.561 99.1348 342.414 99.5391 341.87 99.8113C341.734 99.8773 341.595 99.9144 341.456 99.9144ZM339.735 95.5628C340.001 96.8827 340.558 98.941 341.269 99.3287C341.396 99.3988 341.512 99.3988 341.647 99.3287C342.005 99.1513 342.064 98.9327 342.076 98.7884C342.164 97.9015 340.717 96.4208 339.739 95.5587L339.735 95.5628Z" fill="#A37B90"/>
<path d="M363.411 76.9521C361.705 76.9521 360.699 76.42 360.62 76.3787C360.492 76.3086 360.445 76.1477 360.512 76.0157C360.58 75.8838 360.735 75.8343 360.862 75.9044C360.894 75.9209 364.261 77.678 369.271 74.4649C369.394 74.3865 369.553 74.4277 369.629 74.5515C369.704 74.6793 369.665 74.8443 369.545 74.9227C367.045 76.5231 364.945 76.9521 363.411 76.9521Z" fill="#A37B90"/>
<path d="M355.197 107.908C355.085 107.908 354.982 107.834 354.95 107.714C354.91 107.574 354.99 107.421 355.125 107.38L374.929 101.399L374.634 95.9506C374.626 95.8021 374.734 95.6742 374.877 95.666C375.008 95.6495 375.143 95.7691 375.151 95.9176L375.457 101.581C375.465 101.705 375.386 101.82 375.271 101.853L355.268 107.896C355.244 107.904 355.22 107.908 355.197 107.908Z" fill="#A37B90"/>
<path d="M351.475 106.291C351.34 106.291 351.225 106.18 351.217 106.036L350.779 97.386C350.616 96.9941 349.626 94.3914 349.893 90.0068C350.175 85.3335 352.529 81.6254 352.628 81.4686C352.708 81.3449 352.867 81.3119 352.986 81.3944C353.105 81.4769 353.137 81.6419 353.058 81.7656C353.034 81.8027 350.68 85.515 350.406 90.0398C350.131 94.577 351.256 97.188 351.268 97.2128C351.28 97.2458 351.288 97.2787 351.292 97.3117L351.734 106.011C351.742 106.159 351.63 106.283 351.487 106.291C351.483 106.291 351.479 106.291 351.471 106.291H351.475Z" fill="#A37B90"/>
<path d="M380.431 104.377C378.916 104.377 375.708 102.026 375.028 101.519C374.933 101.449 374.897 101.321 374.937 101.206C374.98 101.094 375.084 101.024 375.203 101.036C375.704 101.09 380.113 101.597 381.071 102.954C381.246 103.206 381.31 103.47 381.254 103.746C381.198 104.023 381.043 104.221 380.801 104.316C380.694 104.361 380.566 104.377 380.427 104.377H380.431ZM376.205 101.709C377.835 102.839 379.966 104.076 380.618 103.812C380.674 103.792 380.729 103.755 380.753 103.635C380.777 103.511 380.749 103.392 380.662 103.268C380.109 102.488 377.791 101.965 376.205 101.709Z" fill="#A37B90"/>
<path d="M341.309 116.302C341.225 116.302 341.146 116.261 341.094 116.187C341.011 116.063 341.043 115.898 341.158 115.811L346.851 111.72C346.971 111.633 347.13 111.666 347.213 111.786C347.293 111.909 347.265 112.074 347.146 112.161L341.452 116.253C341.408 116.286 341.357 116.302 341.305 116.302H341.309Z" fill="black"/>
<path d="M342.148 111.938C342.06 111.938 341.973 111.889 341.925 111.806C341.854 111.678 341.893 111.513 342.017 111.439L344.529 109.905C344.653 109.826 344.812 109.872 344.883 109.999C344.955 110.127 344.915 110.292 344.792 110.367L342.279 111.901C342.239 111.926 342.192 111.938 342.148 111.938Z" fill="black"/>
<path d="M304.958 118.62H337.361C338.081 118.62 338.534 117.816 338.18 117.164L327.091 95.4844C326.924 95.1792 326.61 94.9854 326.272 94.9854H293.869C293.15 94.9854 292.697 95.7897 293.05 96.4414L304.139 118.121C304.306 118.426 304.62 118.62 304.958 118.62Z" fill="#92B4EA"/>
<path d="M304.56 120.278H343.766C344.128 120.278 344.422 119.974 344.422 119.598V117.82C344.422 117.444 344.128 117.139 343.766 117.139H304.56C304.198 117.139 303.904 117.444 303.904 117.82V119.598C303.904 119.974 304.198 120.278 304.56 120.278Z" fill="#6876AA"/>
<path d="M283.329 114.557H315.084C315.633 114.557 316.078 115.019 316.078 115.588V119.371C316.078 119.94 315.633 120.402 315.084 120.402H283.329C281.791 120.402 280.538 119.107 280.538 117.506V117.453C280.538 115.857 281.787 114.557 283.329 114.557Z" fill="#F7B369"/>
<path d="M291.456 114.619H319.39C319.907 114.619 320.325 115.052 320.325 115.588V119.49C320.325 120.027 319.907 120.46 319.39 120.46H291.456C290.005 120.46 288.828 119.239 288.828 117.733V117.341C288.828 115.836 290.005 114.615 291.456 114.615V114.619Z" fill="#FFC892"/>
<path d="M320.329 119.33H291.901C290.915 119.33 290.112 118.501 290.112 117.473C290.112 116.446 290.911 115.617 291.901 115.617H320.329V119.325V119.33Z" fill="white"/>
<path d="M283.246 114.664H314.667C316.221 114.664 317.482 113.357 317.482 111.744C317.482 110.131 316.221 108.824 314.667 108.824H283.246C283.206 108.824 283.17 108.857 283.17 108.902V114.59C283.17 114.631 283.202 114.669 283.246 114.669V114.664Z" fill="#C8BCCE"/>
<path d="M282.502 114.664H306.795C308.349 114.664 309.61 113.357 309.61 111.744C309.61 110.131 308.349 108.824 306.795 108.824H282.502C282.017 108.824 281.62 109.232 281.62 109.74V113.753C281.62 114.256 282.013 114.669 282.502 114.669V114.664Z" fill="#ECE8EF"/>
<path d="M281.624 113.534H306.687C307.673 113.534 308.477 112.705 308.477 111.678C308.477 110.651 307.677 109.822 306.687 109.822H281.624V113.53V113.534Z" fill="white"/>
<path d="M285.818 108.869H311.073C312.627 108.869 313.888 107.562 313.888 105.949C313.888 104.336 312.627 103.029 311.073 103.029H285.818C285.639 103.029 285.496 103.177 285.496 103.363V108.535C285.496 108.721 285.639 108.869 285.818 108.869Z" fill="#B1A5B7"/>
<path d="M285.015 108.869H304.556C306.111 108.869 307.371 107.562 307.371 105.949C307.371 104.336 306.111 103.029 304.556 103.029H285.015C284.574 103.029 284.212 103.4 284.212 103.862V108.04C284.212 108.498 284.57 108.873 285.015 108.873V108.869Z" fill="#C8BCCE"/>
<path d="M284.216 107.743H304.644C305.63 107.743 306.433 106.914 306.433 105.887C306.433 104.86 305.634 104.031 304.644 104.031H284.216V107.739V107.743Z" fill="#ECE8EF"/>
<path d="M304.696 97.9347H293.71C293.567 97.9347 293.452 97.815 293.452 97.6665C293.452 97.5181 293.567 97.3984 293.71 97.3984H304.696C304.839 97.3984 304.954 97.5181 304.954 97.6665C304.954 97.815 304.839 97.9347 304.696 97.9347Z" fill="white"/>
<path d="M361.28 68.1333C361.041 68.1333 360.83 68.0591 360.643 67.9147C360.142 67.527 360.039 66.7557 360.031 66.7227C360.015 66.5907 360.091 66.471 360.21 66.4298L363.681 65.3244C363.788 65.2914 363.9 65.3285 363.963 65.4192C364.031 65.51 364.035 65.6337 363.975 65.7286C363.832 65.9555 362.564 67.9312 361.49 68.1127C361.419 68.1251 361.347 68.1292 361.28 68.1292V68.1333ZM360.592 66.8753C360.651 67.0774 360.763 67.3455 360.95 67.4899C361.077 67.5889 361.224 67.6177 361.407 67.5889C361.924 67.5022 362.619 66.7185 363.097 66.0792L360.592 66.8794V66.8753Z" fill="black"/>
<path d="M360.127 64.879C360.019 64.879 359.916 64.8089 359.88 64.6934C359.2 62.5279 360.914 60.845 360.989 60.7749C361.093 60.6759 361.256 60.68 361.355 60.7873C361.455 60.8945 361.447 61.0636 361.343 61.1667C361.327 61.1832 359.801 62.6888 360.377 64.5284C360.421 64.6686 360.345 64.8213 360.21 64.8666C360.182 64.8749 360.158 64.879 360.131 64.879H360.127Z" fill="black"/>
<path d="M359.502 61.241C359.502 61.241 359.467 61.241 359.451 61.2368C359.312 61.208 359.22 61.0677 359.248 60.9192L359.546 59.3683L358.97 58.5228C358.886 58.4031 358.914 58.234 359.033 58.1474C359.149 58.0608 359.312 58.0897 359.395 58.2093L360.035 59.1497C360.075 59.2116 360.091 59.2858 360.079 59.3559L359.757 61.0182C359.733 61.1461 359.626 61.2327 359.502 61.2327V61.241Z" fill="black"/>
<path d="M364.079 61.6616C364.079 61.6616 364.043 61.6616 364.027 61.6575C363.888 61.6286 363.796 61.4884 363.824 61.3399L364.122 59.789L363.546 58.9434C363.462 58.8238 363.49 58.6547 363.609 58.5681C363.725 58.4814 363.888 58.5103 363.971 58.6299L364.611 59.5704C364.651 59.6322 364.667 59.7065 364.655 59.7766L364.333 61.4389C364.309 61.5667 364.202 61.6534 364.079 61.6534V61.6616Z" fill="black"/>
<path d="M358.946 57.4338C358.89 57.4338 358.834 57.4131 358.787 57.376C358.675 57.2853 358.656 57.1162 358.743 57.0007C359.324 56.2335 360.294 56.4809 360.731 56.7202C360.858 56.7903 360.906 56.9512 360.838 57.0832C360.771 57.2152 360.616 57.2647 360.488 57.1945C360.453 57.1739 359.606 56.7284 359.153 57.3306C359.101 57.3966 359.025 57.4338 358.95 57.4338H358.946Z" fill="black"/>
<path d="M365.836 57.8133C365.792 57.8133 365.748 57.801 365.709 57.7762C364.516 57.0626 363.685 57.3967 363.653 57.4132C363.522 57.4669 363.371 57.405 363.315 57.2689C363.26 57.1327 363.319 56.976 363.45 56.9183C363.494 56.8976 364.536 56.4522 365.967 57.3101C366.09 57.3844 366.134 57.5493 366.062 57.6772C366.015 57.7638 365.927 57.8133 365.84 57.8133H365.836Z" fill="black"/>
<path d="M370.261 66.2236C370.197 66.2236 370.13 66.1989 370.082 66.1494C369.979 66.0463 369.975 65.8772 370.074 65.7699L372.539 63.1136C372.638 63.0064 372.801 63.0022 372.905 63.1053C373.008 63.2085 373.012 63.3776 372.913 63.4848L370.448 66.1412C370.396 66.1948 370.329 66.2236 370.261 66.2236Z" fill="black"/>
<path d="M372.992 65.5967C372.992 65.5967 372.953 65.5967 372.933 65.5884L371.171 65.1677C371.032 65.1347 370.945 64.9903 370.977 64.846C371.008 64.7016 371.152 64.6109 371.287 64.6439L373.048 65.0646C373.187 65.0976 373.275 65.2419 373.243 65.3863C373.215 65.5101 373.108 65.5967 372.992 65.5967Z" fill="black"/>
<path d="M190.557 106.126C190.557 106.126 198.505 104.79 201.483 104.464C204.759 104.105 206.58 105.99 207.693 107.269C209.59 109.438 209.626 113.774 209.359 114.516C208.958 115.646 206.962 113.332 206.962 113.332C206.962 113.332 207.157 114.236 206.218 115.048C205.28 115.861 204.274 115.692 204.274 115.692C204.274 115.692 204.429 117.424 203.574 117.527C202.72 117.63 199.098 118.509 198.74 117.445C198.382 116.385 201.066 115.044 201.066 115.044L200.509 113.209C200.509 113.209 199.01 116.9 195.726 116.941C192.442 116.983 190.717 113.221 190.717 113.221L190.557 106.122V106.126Z" fill="#F48462"/>
<path d="M206.962 113.6C206.962 113.6 206.934 113.6 206.922 113.6C206.783 113.58 206.683 113.439 206.707 113.295C207.017 111.208 204.974 109.488 204.954 109.467C204.843 109.377 204.823 109.208 204.914 109.088C205.002 108.972 205.165 108.952 205.276 109.047C205.371 109.125 207.574 110.977 207.216 113.374C207.196 113.505 207.085 113.6 206.962 113.6Z" fill="black"/>
<path d="M204.274 115.96C204.242 115.96 204.21 115.956 204.179 115.939C204.047 115.885 203.98 115.729 204.032 115.593C204.672 113.914 203.324 111.856 203.308 111.835C203.228 111.711 203.256 111.546 203.376 111.46C203.495 111.377 203.654 111.406 203.737 111.526C203.801 111.62 205.256 113.84 204.517 115.786C204.477 115.894 204.377 115.956 204.274 115.956V115.96Z" fill="black"/>
<path d="M192.199 119.676V102.913C192.199 102.48 191.861 102.129 191.444 102.129H187.639C187.222 102.129 186.884 102.48 186.884 102.913V119.676C186.884 120.109 187.222 120.46 187.639 120.46H191.444C191.861 120.46 192.199 120.109 192.199 119.676Z" fill="#F7B369"/>
<path d="M76.3478 97.419C76.3478 97.419 78.5345 95.5752 83.0193 94.6801C87.504 93.7851 91.7621 93.8923 91.7621 93.8923L92.5652 98.248L76.3478 97.419Z" fill="#EEEDEF"/>
<path d="M76.98 97.8397C76.98 97.8397 72.4356 95.1586 68.2968 94.8039C64.1579 94.445 60.532 95.2824 60.532 95.2824L61.51 99.0854L76.98 97.8438V97.8397Z" fill="#EEEDEF"/>
<path d="M96.9903 121.697H63.7365L59.8243 96.8828H93.0821L96.9903 121.697Z" fill="#C8BCCE"/>
<path d="M81.7232 121.697H78.8288L75.0915 96.8828H77.8706L81.7232 121.697Z" fill="#DDD5E2"/>
<path d="M88.0209 121.965C87.8976 121.965 87.7903 121.875 87.7664 121.747L87.2019 118.583C87.1502 118.303 86.9156 118.1 86.6413 118.1H72.7418C72.5788 118.1 72.4237 118.175 72.3164 118.298C72.209 118.426 72.1573 118.595 72.1772 118.76L72.5231 121.66C72.539 121.809 72.4396 121.941 72.2965 121.961C72.1573 121.982 72.0261 121.875 72.0063 121.726L71.6604 118.826C71.6206 118.505 71.72 118.183 71.9228 117.94C72.1295 117.696 72.4277 117.56 72.7378 117.56H86.6373C87.1621 117.56 87.6114 117.948 87.7068 118.484L88.2714 121.648C88.2992 121.792 88.2038 121.932 88.0646 121.961C88.0487 121.961 88.0328 121.965 88.0169 121.965H88.0209Z" fill="#B1A5B7"/>
<path d="M96.9903 121.965H63.7365C63.5934 121.965 63.4781 121.846 63.4781 121.697C63.4781 121.549 63.5934 121.429 63.7365 121.429H96.9903C97.1335 121.429 97.2488 121.549 97.2488 121.697C97.2488 121.846 97.1335 121.965 96.9903 121.965Z" fill="#B1A5B7"/>
<path d="M96.9904 109.558C96.8751 109.558 96.7717 109.48 96.7399 109.36C94.9468 102.369 100.203 91.6814 100.425 91.2277C100.493 91.0957 100.648 91.0462 100.775 91.1122C100.903 91.1782 100.95 91.3432 100.887 91.4752C100.831 91.5825 95.4994 102.435 97.2408 109.224C97.2766 109.368 97.1971 109.513 97.0579 109.554C97.0341 109.558 97.0142 109.562 96.9904 109.562V109.558Z" fill="#465884"/>
</g>
<defs>
<clipPath id="clip0_33_800">
<rect width="402" height="127.739" fill="white" transform="translate(0 0.355713)"/>
</clipPath>
</defs>
</svg>
